<?xml version="1.0" encoding="UTF-8" standalone="no"?>
<!DOCTYPE svg PUBLIC "-//W3C//DTD SVG 1.1//EN"
 "http://www.w3.org/Graphics/SVG/1.1/DTD/svg11.dtd">
<!-- Generated by graphviz version 2.47.0 (20210316.0004)
 -->
<!-- Title: dependencies Pages: 1 -->
<svg width="2297pt" height="284pt"
 viewBox="0.00 0.00 2297.00 284.00" xmlns="http://www.w3.org/2000/svg" xmlns:xlink="http://www.w3.org/1999/xlink">
<g id="graph0" class="graph" transform="scale(1 1) rotate(0) translate(4 280)">
<title>dependencies</title>
<polygon fill="white" stroke="transparent" points="-4,4 -4,-280 2293,-280 2293,4 -4,4"/>
<text text-anchor="start" x="1123.51" y="-42.4" font-family="Times-12" font-weight="bold" font-size="14.00">Legend</text>
<polygon fill="#ffffb3" stroke="transparent" points="910.5,-10 910.5,-30 930.5,-30 930.5,-10 910.5,-10"/>
<text text-anchor="start" x="934.13" y="-15.4" font-family="Times-12" font-size="14.00"> &#160;Declarations</text>
<polygon fill="#8dd3c7" stroke="transparent" points="1023.5,-10 1023.5,-30 1043.5,-30 1043.5,-10 1023.5,-10"/>
<text text-anchor="start" x="1047.23" y="-15.4" font-family="Times-12" font-size="14.00"> &#160;Module</text>
<polygon fill="#80b1d3" stroke="transparent" points="1109.5,-10 1109.5,-30 1129.5,-30 1129.5,-10 1109.5,-10"/>
<text text-anchor="start" x="1133.28" y="-15.4" font-family="Times-12" font-size="14.00"> &#160;Bootstrap</text>
<polygon fill="#fdb462" stroke="transparent" points="1206.5,-10 1206.5,-30 1226.5,-30 1226.5,-10 1206.5,-10"/>
<text text-anchor="start" x="1230.17" y="-15.4" font-family="Times-12" font-size="14.00"> &#160;Providers</text>
<polygon fill="#fb8072" stroke="transparent" points="1302.5,-10 1302.5,-30 1322.5,-30 1322.5,-10 1302.5,-10"/>
<text text-anchor="start" x="1326.23" y="-15.4" font-family="Times-12" font-size="14.00"> &#160;Exports</text>
<g id="clust1" class="cluster">
<title>cluster_AppModule</title>
<polygon fill="none" stroke="black" stroke-dasharray="1,5" points="8,-70 8,-268 2281,-268 2281,-70 8,-70"/>
</g>
<g id="clust2" class="cluster">
<title>cluster_AppModule_declarations</title>
<polygon fill="none" stroke="black" points="925,-78 925,-130 2273,-130 2273,-78 925,-78"/>
</g>
<g id="clust12" class="cluster">
<title>cluster_AppModule_imports</title>
<polygon fill="none" stroke="black" points="238,-78 238,-130 917,-130 917,-78 238,-78"/>
</g>
<g id="clust14" class="cluster">
<title>cluster_AppModule_bootstrap</title>
<polygon fill="none" stroke="black" points="1257,-208 1257,-260 1381,-260 1381,-208 1257,-208"/>
</g>
<g id="clust15" class="cluster">
<title>cluster_AppModule_providers</title>
<polygon fill="none" stroke="black" points="16,-78 16,-130 230,-130 230,-78 16,-78"/>
</g>
<!-- AppComponent -->
<g id="node1" class="node">
<title>AppComponent</title>
<polygon fill="#ffffb3" stroke="black" points="2264.94,-122 2159.06,-122 2159.06,-86 2264.94,-86 2264.94,-122"/>
<text text-anchor="middle" x="2212" y="-99.8" font-family="Times,serif" font-size="14.00">AppComponent</text>
</g>
<!-- AppModule -->
<g id="node10" class="node">
<title>AppModule</title>
<polygon fill="#8dd3c7" stroke="black" points="1360.66,-187 1357.66,-191 1336.66,-191 1333.66,-187 1277.34,-187 1277.34,-151 1360.66,-151 1360.66,-187"/>
<text text-anchor="middle" x="1319" y="-164.8" font-family="Times,serif" font-size="14.00">AppModule</text>
</g>
<!-- AppComponent&#45;&gt;AppModule -->
<g id="edge1" class="edge">
<title>AppComponent&#45;&gt;AppModule</title>
<path fill="none" stroke="black" d="M2212,-122.09C2212,-145.13 2212,-182 2212,-182 2212,-182 1370.87,-182 1370.87,-182"/>
<polygon fill="black" stroke="black" points="1370.87,-178.5 1360.87,-182 1370.87,-185.5 1370.87,-178.5"/>
</g>
<!-- EmailVerificationComponent -->
<g id="node2" class="node">
<title>EmailVerificationComponent</title>
<polygon fill="#ffffb3" stroke="black" points="2141.41,-122 1958.59,-122 1958.59,-86 2141.41,-86 2141.41,-122"/>
<text text-anchor="middle" x="2050" y="-99.8" font-family="Times,serif" font-size="14.00">EmailVerificationComponent</text>
</g>
<!-- EmailVerificationComponent&#45;&gt;AppModule -->
<g id="edge2" class="edge">
<title>EmailVerificationComponent&#45;&gt;AppModule</title>
<path fill="none" stroke="black" d="M2050,-122.04C2050,-143.66 2050,-177 2050,-177 2050,-177 1370.66,-177 1370.66,-177"/>
<polygon fill="black" stroke="black" points="1370.66,-173.5 1360.66,-177 1370.66,-180.5 1370.66,-173.5"/>
</g>
<!-- ForgotComponent -->
<g id="node3" class="node">
<title>ForgotComponent</title>
<polygon fill="#ffffb3" stroke="black" points="1940.17,-122 1821.83,-122 1821.83,-86 1940.17,-86 1940.17,-122"/>
<text text-anchor="middle" x="1881" y="-99.8" font-family="Times,serif" font-size="14.00">ForgotComponent</text>
</g>
<!-- ForgotComponent&#45;&gt;AppModule -->
<g id="edge3" class="edge">
<title>ForgotComponent&#45;&gt;AppModule</title>
<path fill="none" stroke="black" d="M1881,-122.22C1881,-142.37 1881,-172 1881,-172 1881,-172 1370.78,-172 1370.78,-172"/>
<polygon fill="black" stroke="black" points="1370.78,-168.5 1360.78,-172 1370.78,-175.5 1370.78,-168.5"/>
</g>
<!-- HomeComponent -->
<g id="node4" class="node">
<title>HomeComponent</title>
<polygon fill="#ffffb3" stroke="black" points="1803.55,-122 1688.45,-122 1688.45,-86 1803.55,-86 1803.55,-122"/>
<text text-anchor="middle" x="1746" y="-99.8" font-family="Times,serif" font-size="14.00">HomeComponent</text>
</g>
<!-- HomeComponent&#45;&gt;AppModule -->
<g id="edge4" class="edge">
<title>HomeComponent&#45;&gt;AppModule</title>
<path fill="none" stroke="black" d="M1746,-122.22C1746,-140.83 1746,-167 1746,-167 1746,-167 1370.72,-167 1370.72,-167"/>
<polygon fill="black" stroke="black" points="1370.72,-163.5 1360.72,-167 1370.72,-170.5 1370.72,-163.5"/>
</g>
<!-- ListDefaultComponent -->
<g id="node5" class="node">
<title>ListDefaultComponent</title>
<polygon fill="#ffffb3" stroke="black" points="1670.59,-122 1525.41,-122 1525.41,-86 1670.59,-86 1670.59,-122"/>
<text text-anchor="middle" x="1598" y="-99.8" font-family="Times,serif" font-size="14.00">ListDefaultComponent</text>
</g>
<!-- ListDefaultComponent&#45;&gt;AppModule -->
<g id="edge5" class="edge">
<title>ListDefaultComponent&#45;&gt;AppModule</title>
<path fill="none" stroke="black" d="M1598,-122.03C1598,-139.06 1598,-162 1598,-162 1598,-162 1370.77,-162 1370.77,-162"/>
<polygon fill="black" stroke="black" points="1370.77,-158.5 1360.77,-162 1370.77,-165.5 1370.77,-158.5"/>
</g>
<!-- LoginComponent -->
<g id="node6" class="node">
<title>LoginComponent</title>
<polygon fill="#ffffb3" stroke="black" points="1507.28,-122 1392.72,-122 1392.72,-86 1507.28,-86 1507.28,-122"/>
<text text-anchor="middle" x="1450" y="-99.8" font-family="Times,serif" font-size="14.00">LoginComponent</text>
</g>
<!-- LoginComponent&#45;&gt;AppModule -->
<g id="edge6" class="edge">
<title>LoginComponent&#45;&gt;AppModule</title>
<path fill="none" stroke="black" d="M1450,-122.24C1450,-137.57 1450,-157 1450,-157 1450,-157 1370.81,-157 1370.81,-157"/>
<polygon fill="black" stroke="black" points="1370.81,-153.5 1360.81,-157 1370.81,-160.5 1370.81,-153.5"/>
</g>
<!-- MainComponent -->
<g id="node7" class="node">
<title>MainComponent</title>
<polygon fill="#ffffb3" stroke="black" points="1374.38,-122 1263.62,-122 1263.62,-86 1374.38,-86 1374.38,-122"/>
<text text-anchor="middle" x="1319" y="-99.8" font-family="Times,serif" font-size="14.00">MainComponent</text>
</g>
<!-- MainComponent&#45;&gt;AppModule -->
<g id="edge7" class="edge">
<title>MainComponent&#45;&gt;AppModule</title>
<path fill="none" stroke="black" d="M1319,-122.11C1319,-122.11 1319,-140.99 1319,-140.99"/>
<polygon fill="black" stroke="black" points="1315.5,-140.99 1319,-150.99 1322.5,-140.99 1315.5,-140.99"/>
</g>
<!-- SelectLenguageComponent -->
<g id="node8" class="node">
<title>SelectLenguageComponent</title>
<polygon fill="#ffffb3" stroke="black" points="1245.24,-122 1074.76,-122 1074.76,-86 1245.24,-86 1245.24,-122"/>
<text text-anchor="middle" x="1160" y="-99.8" font-family="Times,serif" font-size="14.00">SelectLenguageComponent</text>
</g>
<!-- SelectLenguageComponent&#45;&gt;AppModule -->
<g id="edge8" class="edge">
<title>SelectLenguageComponent&#45;&gt;AppModule</title>
<path fill="none" stroke="black" d="M1160,-122.24C1160,-137.57 1160,-157 1160,-157 1160,-157 1267.22,-157 1267.22,-157"/>
<polygon fill="black" stroke="black" points="1267.22,-160.5 1277.22,-157 1267.22,-153.5 1267.22,-160.5"/>
</g>
<!-- SignUpComponent -->
<g id="node9" class="node">
<title>SignUpComponent</title>
<polygon fill="#ffffb3" stroke="black" points="1057.11,-122 932.89,-122 932.89,-86 1057.11,-86 1057.11,-122"/>
<text text-anchor="middle" x="995" y="-99.8" font-family="Times,serif" font-size="14.00">SignUpComponent</text>
</g>
<!-- SignUpComponent&#45;&gt;AppModule -->
<g id="edge9" class="edge">
<title>SignUpComponent&#45;&gt;AppModule</title>
<path fill="none" stroke="black" d="M995,-122.03C995,-139.06 995,-162 995,-162 995,-162 1267.31,-162 1267.31,-162"/>
<polygon fill="black" stroke="black" points="1267.31,-165.5 1277.31,-162 1267.31,-158.5 1267.31,-165.5"/>
</g>
<!-- AppComponent  -->
<g id="node14" class="node">
<title>AppComponent </title>
<polygon fill="#80b1d3" stroke="black" points="1373.44,-252 1264.56,-252 1264.56,-216 1373.44,-216 1373.44,-252"/>
<text text-anchor="middle" x="1319" y="-229.8" font-family="Times,serif" font-size="14.00">AppComponent </text>
</g>
<!-- AppModule&#45;&gt;AppComponent  -->
<g id="edge13" class="edge">
<title>AppModule&#45;&gt;AppComponent </title>
<path fill="none" stroke="black" stroke-dasharray="1,5" d="M1319,-187.11C1319,-187.11 1319,-205.99 1319,-205.99"/>
<polygon fill="black" stroke="black" points="1315.5,-205.99 1319,-215.99 1322.5,-205.99 1315.5,-205.99"/>
</g>
<!-- AppRoutingModule -->
<g id="node11" class="node">
<title>AppRoutingModule</title>
<polygon fill="#8dd3c7" stroke="black" points="909.27,-122 906.27,-126 885.27,-126 882.27,-122 780.73,-122 780.73,-86 909.27,-86 909.27,-122"/>
<text text-anchor="middle" x="845" y="-99.8" font-family="Times,serif" font-size="14.00">AppRoutingModule</text>
</g>
<!-- AppRoutingModule&#45;&gt;AppModule -->
<g id="edge10" class="edge">
<title>AppRoutingModule&#45;&gt;AppModule</title>
<path fill="none" stroke="black" d="M845,-122.22C845,-140.83 845,-167 845,-167 845,-167 1266.94,-167 1266.94,-167"/>
<polygon fill="black" stroke="black" points="1266.94,-170.5 1276.94,-167 1266.94,-163.5 1266.94,-170.5"/>
</g>
<!-- provideAuth(() =&gt; getAuth()) -->
<g id="node12" class="node">
<title>provideAuth(() =&gt; getAuth())</title>
<polygon fill="#8dd3c7" stroke="black" points="762.12,-122 759.12,-126 738.12,-126 735.12,-122 579.88,-122 579.88,-86 762.12,-86 762.12,-122"/>
<text text-anchor="middle" x="671" y="-99.8" font-family="Times,serif" font-size="14.00">provideAuth(() =&gt; getAuth())</text>
</g>
<!-- provideAuth(() =&gt; getAuth())&#45;&gt;AppModule -->
<g id="edge11" class="edge">
<title>provideAuth(() =&gt; getAuth())&#45;&gt;AppModule</title>
<path fill="none" stroke="black" d="M671,-122.22C671,-142.37 671,-172 671,-172 671,-172 1266.98,-172 1266.98,-172"/>
<polygon fill="black" stroke="black" points="1266.98,-175.5 1276.98,-172 1266.98,-168.5 1266.98,-175.5"/>
</g>
<!-- provideFirebaseApp(() =&gt; initializeApp(environment -->
<g id="node13" class="node">
<title>provideFirebaseApp(() =&gt; initializeApp(environment</title>
<polygon fill="#8dd3c7" stroke="black" points="561.58,-122 558.58,-126 537.58,-126 534.58,-122 246.42,-122 246.42,-86 561.58,-86 561.58,-122"/>
<text text-anchor="middle" x="404" y="-99.8" font-family="Times,serif" font-size="14.00">provideFirebaseApp(() =&gt; initializeApp(environment</text>
</g>
<!-- provideFirebaseApp(() =&gt; initializeApp(environment&#45;&gt;AppModule -->
<g id="edge12" class="edge">
<title>provideFirebaseApp(() =&gt; initializeApp(environment&#45;&gt;AppModule</title>
<path fill="none" stroke="black" d="M404,-122.04C404,-143.66 404,-177 404,-177 404,-177 1267.31,-177 1267.31,-177"/>
<polygon fill="black" stroke="black" points="1267.31,-180.5 1277.31,-177 1267.31,-173.5 1267.31,-180.5"/>
</g>
<!-- ProductDefaultService -->
<g id="node15" class="node">
<title>ProductDefaultService</title>
<ellipse fill="#fdb462" stroke="black" cx="123" cy="-104" rx="98.97" ry="18"/>
<text text-anchor="middle" x="123" y="-99.8" font-family="Times,serif" font-size="14.00">ProductDefaultService</text>
</g>
<!-- ProductDefaultService&#45;&gt;AppModule -->
<g id="edge14" class="edge">
<title>ProductDefaultService&#45;&gt;AppModule</title>
<path fill="none" stroke="black" d="M123,-122.09C123,-145.13 123,-182 123,-182 123,-182 1267.14,-182 1267.14,-182"/>
<polygon fill="black" stroke="black" points="1267.14,-185.5 1277.14,-182 1267.13,-178.5 1267.14,-185.5"/>
</g>
</g>
</svg>
